<svg width="24" height="24" viewBox="0 0 24 24" fill="none" xmlns="http://www.w3.org/2000/svg">
<path fill-rule="evenodd" clip-rule="evenodd" d="M8.56175 15.0415C9.68526 18.2837 14.3805 18.4028 15.4363 15.0415C16.6793 16.1372 20.3566 16.3579 21.7251 17.106C22.1574 17.3423 22.5498 17.6431 22.8625 18.0513C23.3386 18.6685 23.6315 19.4751 23.7112 20.5005L23.996 22.7974C23.9263 23.522 23.508 23.9399 22.6813 24.0005H1.31474C0.49004 23.938 0.0697211 23.522 0 22.7974L0.284861 20.5005C0.364542 19.4771 0.657371 18.6704 1.13347 18.0513C1.44821 17.6431 1.83865 17.3423 2.27092 17.106C3.64143 16.3579 7.31872 16.1392 8.56175 15.0415ZM18.2729 18.5005H18.992C19.1275 18.5005 19.2371 18.6079 19.2371 18.7407V19.7935H20.3108C20.4442 19.7935 20.5558 19.9009 20.5558 20.0337V20.7388C20.5558 20.8696 20.4462 20.979 20.3108 20.979H19.2371V22.0317C19.2371 22.1626 19.1275 22.272 18.992 22.272H18.2729C18.1394 22.272 18.0279 22.1646 18.0279 22.0317V20.979H16.9542C16.8207 20.979 16.7092 20.8716 16.7092 20.7388V20.0337C16.7092 19.9028 16.8187 19.7935 16.9542 19.7935H18.0279V18.7407C18.0279 18.6079 18.1374 18.5005 18.2729 18.5005ZM7.70119 7.1919C7.46614 7.20167 7.28685 7.24854 7.16534 7.32862C7.09562 7.37354 7.04382 7.43214 7.01195 7.50245C6.9761 7.58057 6.95817 7.67432 6.96215 7.78174C6.97211 8.09815 7.14143 8.51417 7.46813 8.99073L7.47211 8.99854L8.53586 10.6567C8.96215 11.3208 9.40837 11.9985 9.96414 12.4966C10.498 12.9751 11.1454 13.2993 12.002 13.3013C12.9303 13.3032 13.6076 12.9673 14.1594 12.4614C14.7331 11.936 15.1833 11.2153 15.6295 10.4946L16.8267 8.56104C17.0498 8.06104 17.1315 7.72706 17.0797 7.53175C17.0498 7.41456 16.9183 7.35792 16.6932 7.3462C16.6454 7.34424 16.5976 7.34424 16.5478 7.34424C16.494 7.3462 16.4382 7.3501 16.3805 7.35401C16.3486 7.35596 16.3167 7.35401 16.2888 7.34815C16.1833 7.35401 16.0717 7.3462 15.9602 7.33057L16.3705 5.55128C13.3267 6.02198 11.0518 3.80518 7.83466 5.10792L8.06773 7.20753C7.93625 7.21339 7.81474 7.20948 7.70119 7.1919ZM17.1036 6.81885C17.3984 6.90674 17.5876 7.09034 17.6653 7.38721C17.751 7.71534 17.6574 8.17823 17.3745 8.81104C17.3685 8.82276 17.3625 8.83448 17.3566 8.84424L16.1434 10.8013C15.6773 11.5552 15.2032 12.311 14.5697 12.8911C13.9143 13.4927 13.1076 13.8931 12.002 13.8911C10.9701 13.8892 10.1952 13.5024 9.55777 12.9321C8.94223 12.3814 8.47211 11.6685 8.0259 10.9732L6.96215 9.31495C6.57371 8.74659 6.37052 8.22706 6.35857 7.80128C6.35259 7.6001 6.38845 7.41846 6.46215 7.25831C6.54183 7.09034 6.66335 6.94971 6.82669 6.84229C6.90438 6.79151 6.99004 6.74854 7.08367 6.71339C7.01394 5.81495 6.98805 4.68214 7.03386 3.73292C7.05777 3.50831 7.10159 3.2837 7.16534 3.05714C7.43625 2.10596 8.11753 1.34034 8.96215 0.812995C9.25896 0.627448 9.58566 0.473151 9.92829 0.352057C11.9721 -0.372552 14.6793 0.0219791 16.1295 1.55909C16.7191 2.18604 17.0896 3.01612 17.1693 4.11378L17.1036 6.81885Z" fill="url(#paint0_linear_6559_52147)"/>
<defs>
<linearGradient id="paint0_linear_6559_52147" x1="36.5699" y1="-1.18126" x2="8.50015" y2="52.3485" gradientUnits="userSpaceOnUse">
<stop stop-color="#59C5CA"/>
<stop offset="0.474498" stop-color="#1A8484"/>
<stop offset="0.999485" stop-color="#134D4A"/>
<stop offset="1" stop-color="#226867"/>
</linearGradient>
</defs>
</svg>
